<svg xmlns="http://www.w3.org/2000/svg" viewBox="0 0 87.85 44.39"><defs><style>.cls-1{fill:#e03c31;}.cls-2{fill:#425563;}</style></defs><title>business_logo</title><g id="レイヤー_2" data-name="レイヤー 2"><g id="text"><path class="cls-1" d="M0,37.33s17.12,7.06,43.92,7.06,43.93-7.06,43.93-7.06l-1.18-3.84s-17.26,5.13-42.75,5.13S1.17,33.49,1.17,33.49Z"/><path class="cls-2" d="M27.1,0a.84.84,0,0,1-.85.53H10.09V1.2a.88.88,0,0,1,.6.89V24.42a.89.89,0,0,1-.6.9V26h8.85v-.66a.9.9,0,0,1-.6-.9V18.08h4.24a.84.84,0,0,1,.85.54h.63V11.47h-.63a.85.85,0,0,1-.85.53H18.34V6.92h7.91a.84.84,0,0,1,.85.53h.63V0Z"/><path class="cls-2" d="M48.49,1.2V.53H39.36V1.2a.89.89,0,0,1,.6.89V24.42a.9.9,0,0,1-.6.9V26h9.13v-.66a.9.9,0,0,1-.6-.9V2.09A.89.89,0,0,1,48.49,1.2Z"/><path class="cls-2" d="M69.1.53V1.2a.88.88,0,0,1,.6.89V12.55a9.09,9.09,0,0,1-.39,2.65,3.83,3.83,0,0,1-2.12,2.35,5.68,5.68,0,0,1-3.55.36,3.14,3.14,0,0,1-1.48-.66.92.92,0,0,1-.27-.53l-.64-.19-2.19,8.78.62.17a1.43,1.43,0,0,1,.91-.4,7,7,0,0,1,2,.42,15.25,15.25,0,0,0,4.55.61,10.55,10.55,0,0,0,6.31-2,9.36,9.36,0,0,0,3.78-5.84,21.22,21.22,0,0,0,.43-4.83V2.09a.88.88,0,0,1,.6-.89V.53Z"/></g></g></svg>