<svg xmlns="http://www.w3.org/2000/svg" viewBox="0 0 200 39.45"><defs><style>.cls-1{fill:#425563;}.cls-2{fill:#e03c31;}.cls-3{fill:none;}</style></defs><title>header_logo</title><g id="レイヤー_2" data-name="レイヤー 2"><g id="text"><path class="cls-1" d="M96,11.55h1.53c-.08.3-.23,1.14-.33,1.72l-.5,0a2.42,2.42,0,0,0-.12-.85c-.09-.27-.26-.35-.87-.35h-1c-.38,0-.48.06-.55.45l-.43,2.11h1.14c.93,0,1-.11,1.27-.78h.51l-.45,2.23H95.7c0-.82,0-.9-.9-.9H93.62L93.25,17c-.15.74,0,.78,1,.85l-.1.44H90.74l.09-.44c.81-.06,1-.13,1.12-.86l.84-4.18c.15-.76,0-.79-.87-.86l.11-.44Z"/><path class="cls-1" d="M102.33,15.2a3.21,3.21,0,0,1-1.39,2.69,3,3,0,0,1-1.74.57,1.6,1.6,0,0,1-1.69-1.77,3.13,3.13,0,0,1,1.79-2.92,3.36,3.36,0,0,1,1.32-.31A1.58,1.58,0,0,1,102.33,15.2Zm-3.51,1.44c0,.86.33,1.27.83,1.27,1,0,1.36-1.68,1.36-2.69S100.67,14,100.2,14C99.22,14,98.82,15.64,98.82,16.64Z"/><path class="cls-1" d="M107.91,15.2a3.21,3.21,0,0,1-1.39,2.69,3,3,0,0,1-1.74.57,1.6,1.6,0,0,1-1.69-1.77,3.13,3.13,0,0,1,1.79-2.92,3.36,3.36,0,0,1,1.32-.31A1.58,1.58,0,0,1,107.91,15.2Zm-3.51,1.44c0,.86.33,1.27.83,1.27,1,0,1.36-1.68,1.36-2.69s-.34-1.22-.81-1.22C104.8,14,104.4,15.64,104.4,16.64Z"/><path class="cls-1" d="M114.21,17.32a3,3,0,0,1-1.81,1.14c-.37,0-.58-.27-.38-1.19l.09-.48a3.87,3.87,0,0,1-2.45,1.67c-.61,0-1-.55-1-1.44A3.53,3.53,0,0,1,110,14.27a4,4,0,0,1,2.09-.81,2.61,2.61,0,0,1,.73.09l.26-1.24c.08-.44,0-.47-.49-.5l-.33,0,.09-.43a12.27,12.27,0,0,0,1.71-.3,2.22,2.22,0,0,1,.34-.07c.12,0,.15.09.1.32-.47,1.94-.92,4-1.27,5.77-.06.26,0,.37,0,.37a1.6,1.6,0,0,0,.75-.51Zm-2.39-.87a2.82,2.82,0,0,0,.59-1.18l.19-.91a1.42,1.42,0,0,0-.95-.33c-1.17,0-1.61,1.62-1.61,2.7,0,.5.14.77.4.77S111.36,17,111.82,16.45Z"/><path class="cls-1" d="M122.9,12c-.91.06-1,.13-1.14.86L120.93,17c-.15.74-.09.84.91.9l-.1.44h-3.37l.09-.44c.92-.07,1-.15,1.15-.9l.84-4.14c.15-.73.08-.79-.88-.86l.12-.44H123Z"/><path class="cls-1" d="M128.52,17.34a2.8,2.8,0,0,1-1.87,1.12c-.41,0-.57-.31-.37-1.16.08-.35.47-1.89.54-2.25s.09-.69-.14-.69-1,.54-1.56,1.27a2.32,2.32,0,0,0-.5,1.17c-.11.46-.23,1-.33,1.43a6.87,6.87,0,0,0-1.15.23l-.09-.11c.29-1.1.58-2.35.86-3.55.06-.28,0-.38,0-.38a1.72,1.72,0,0,0-.69.46l-.2-.39a2.75,2.75,0,0,1,1.73-1c.39,0,.56.32.31,1.37l-.07.33a4,4,0,0,1,2.55-1.7c.38,0,.86.19.53,1.58-.07.23-.42,1.74-.48,2s-.06.44,0,.44a1.89,1.89,0,0,0,.74-.51Z"/><path class="cls-1" d="M134.87,17.34A2.8,2.8,0,0,1,133,18.46c-.41,0-.57-.31-.37-1.16.08-.35.47-1.89.55-2.25s.08-.69-.15-.69-1,.54-1.56,1.27a2.4,2.4,0,0,0-.5,1.17c-.11.46-.23,1-.32,1.43a6.8,6.8,0,0,0-1.16.23l-.09-.11c.29-1.1.58-2.35.87-3.55,0-.28,0-.38-.05-.38a1.78,1.78,0,0,0-.69.46l-.2-.39a2.75,2.75,0,0,1,1.73-1c.39,0,.56.32.31,1.37l-.07.33a4,4,0,0,1,2.55-1.7c.38,0,.86.19.53,1.58-.06.23-.42,1.74-.48,2s-.06.44,0,.44a1.89,1.89,0,0,0,.74-.51Z"/><path class="cls-1" d="M140.53,15.2a3.21,3.21,0,0,1-1.39,2.69,3,3,0,0,1-1.74.57,1.6,1.6,0,0,1-1.69-1.77,3.13,3.13,0,0,1,1.79-2.92,3.36,3.36,0,0,1,1.32-.31A1.58,1.58,0,0,1,140.53,15.2ZM137,16.64c0,.86.32,1.27.82,1.27,1,0,1.37-1.68,1.37-2.69S138.86,14,138.4,14C137.42,14,137,15.64,137,16.64Z"/><path class="cls-1" d="M141.17,14.55a2.59,2.59,0,0,1,1.59-1.09c.41,0,.56.36.64,1.25s.11,2,.13,2.54c.62-.71,1.51-1.79,1.51-2.44a1.64,1.64,0,0,0-.18-.58.29.29,0,0,1,0-.26,1,1,0,0,1,.82-.51c.32,0,.5.28.5.69a2.64,2.64,0,0,1-.65,1.51,29.15,29.15,0,0,1-2.48,2.8h-.52c0-.76-.15-2.48-.29-3.44-.07-.48-.11-.56-.21-.56s-.3.12-.6.47Z"/><path class="cls-1" d="M151.64,17.27a2.9,2.9,0,0,1-1.82,1.19c-.36,0-.55-.3-.39-1.18l.09-.45A5.72,5.72,0,0,1,148.34,18a2.11,2.11,0,0,1-1.18.48c-.5,0-.85-.51-.85-1.35a3.77,3.77,0,0,1,1.27-2.81,3.67,3.67,0,0,1,2.26-.84,9.32,9.32,0,0,1,1.54.19c-.21.82-.52,2.18-.74,3.31,0,.33,0,.43.06.43a1.7,1.7,0,0,0,.72-.49Zm-2.4-.78a2.83,2.83,0,0,0,.62-1.29c.09-.43.19-.84.23-1a2.07,2.07,0,0,0-.77-.15c-1.16,0-1.68,1.5-1.67,2.75,0,.45.14.67.33.67S148.73,17.14,149.24,16.49Z"/><path class="cls-1" d="M155.52,14.1l-1.08.08c-.2.92-.58,2.63-.61,2.83-.1.41,0,.52.06.52a2,2,0,0,0,1-.65l.21.37a2.92,2.92,0,0,1-1.94,1.21c-.48,0-.74-.36-.48-1.51l.62-2.77h-.81l-.06-.12.33-.48h.67l.25-1c.12-.06,1.07-.66,1.17-.74l.17.11c-.05.16-.37,1.44-.42,1.66h1.22Z"/><path class="cls-1" d="M160.81,15.2a3.21,3.21,0,0,1-1.39,2.69,3,3,0,0,1-1.74.57A1.6,1.6,0,0,1,156,16.69a3.13,3.13,0,0,1,1.79-2.92,3.36,3.36,0,0,1,1.32-.31A1.58,1.58,0,0,1,160.81,15.2Zm-3.51,1.44c0,.86.33,1.27.82,1.27,1,0,1.37-1.68,1.37-2.69s-.34-1.22-.81-1.22C157.7,14,157.3,15.64,157.3,16.64Z"/><path class="cls-1" d="M161.58,14.49a3,3,0,0,1,1.73-1c.37,0,.47.4.25,1.36l-.06.29c.63-1,1.31-1.65,1.8-1.65A.62.62,0,0,1,166,14a1.29,1.29,0,0,1-.52.85c-.12.08-.23.09-.3,0s-.36-.35-.5-.35-.73.69-.9,1a9,9,0,0,0-.78,2.71,7,7,0,0,0-1.16.22l-.09-.11c.27-1,.58-2.31.77-3.29.11-.48.09-.62,0-.62a1.92,1.92,0,0,0-.68.44Z"/><path class="cls-1" d="M169.69,14.12a.78.78,0,0,1-.39.61c-.16.09-.25.07-.35,0a1.4,1.4,0,0,0-1-.59.49.49,0,0,0-.52.5c0,.29.34.51.8.79.7.4,1.16.73,1.16,1.3,0,.93-1.26,1.77-2.3,1.77-.64,0-1.26-.37-1.28-.84a.82.82,0,0,1,.43-.63.21.21,0,0,1,.33.06,1.69,1.69,0,0,0,1.23.73.56.56,0,0,0,.6-.51c0-.22-.11-.44-.72-.82-.78-.45-1.22-.74-1.22-1.33a1.45,1.45,0,0,1,.7-1.14,2.47,2.47,0,0,1,1.44-.52C169.23,13.46,169.69,13.78,169.69,14.12Z"/><path class="cls-1" d="M177.28,12c-.84.08-.95.12-1.09.88l-.8,4c-.31,1.55-.77,2.24-1.7,2.7a3.24,3.24,0,0,1-1.23.36l-.12-.48c1.13-.28,1.42-.9,1.75-2.64l.79-4c.15-.76.07-.81-.89-.88l.1-.44h3.28Z"/><path class="cls-1" d="M181.92,17.27a2.9,2.9,0,0,1-1.82,1.19c-.36,0-.55-.3-.39-1.18l.08-.45A5.46,5.46,0,0,1,178.62,18a2.11,2.11,0,0,1-1.18.48c-.5,0-.85-.51-.85-1.35a3.77,3.77,0,0,1,1.27-2.81,3.67,3.67,0,0,1,2.26-.84,9.32,9.32,0,0,1,1.54.19c-.21.82-.52,2.18-.74,3.31,0,.33,0,.43.06.43a1.7,1.7,0,0,0,.72-.49Zm-2.4-.78a2.83,2.83,0,0,0,.62-1.29c.09-.43.19-.84.23-1a2.07,2.07,0,0,0-.77-.15c-1.16,0-1.68,1.5-1.67,2.75,0,.45.14.67.33.67S179,17.14,179.52,16.49Z"/><path class="cls-1" d="M185,13.57a4.66,4.66,0,0,1,1-.11c1.2,0,1.71.52,1.71,1.53a3.39,3.39,0,0,1-1,2.26,4.47,4.47,0,0,1-2.12,1.21,2,2,0,0,1-.68-.11l-.21,1.14c-.11.49,0,.6.55.64l.28,0-.07.41-3,.13.08-.43c.71-.09.84-.18,1-.78.39-1.69.75-3.39,1.12-5.05a5,5,0,0,0-.86.36l-.12-.42a7.34,7.34,0,0,1,1.1-.53l.11-.45a5.06,5.06,0,0,1,1.19-.73l.14.1Zm-.85,4a.89.89,0,0,0,.63.31c.69,0,1.63-1.32,1.64-2.71,0-.86-.49-1.08-1.06-1.08a1.61,1.61,0,0,0-.49.07C184.78,14.56,184.24,17.14,184.15,17.56Z"/><path class="cls-1" d="M193.71,17.27a2.9,2.9,0,0,1-1.82,1.19c-.36,0-.55-.3-.39-1.18l.09-.45A5.72,5.72,0,0,1,190.41,18a2.11,2.11,0,0,1-1.18.48c-.5,0-.85-.51-.85-1.35a3.77,3.77,0,0,1,1.27-2.81,3.67,3.67,0,0,1,2.26-.84,9.32,9.32,0,0,1,1.54.19c-.21.82-.52,2.18-.73,3.31-.06.33,0,.43.05.43a1.7,1.7,0,0,0,.72-.49Zm-2.4-.78a2.83,2.83,0,0,0,.62-1.29c.09-.43.19-.84.23-1a2.07,2.07,0,0,0-.77-.15c-1.16,0-1.68,1.5-1.67,2.75,0,.45.14.67.33.67S190.8,17.14,191.31,16.49Z"/><path class="cls-1" d="M200,17.34a2.8,2.8,0,0,1-1.87,1.12c-.41,0-.57-.31-.37-1.16.08-.35.47-1.89.55-2.25s.08-.69-.15-.69-1,.54-1.56,1.27a2.4,2.4,0,0,0-.5,1.17c-.11.46-.23,1-.32,1.43a6.67,6.67,0,0,0-1.15.23l-.1-.11c.29-1.1.58-2.35.87-3.55,0-.28,0-.38-.05-.38a1.78,1.78,0,0,0-.69.46l-.2-.39a2.75,2.75,0,0,1,1.73-1c.39,0,.56.32.31,1.37l-.07.33a4,4,0,0,1,2.55-1.7c.38,0,.86.19.53,1.58-.06.23-.42,1.74-.48,2s-.06.44,0,.44a2,2,0,0,0,.73-.51Z"/><path class="cls-2" d="M0,33.18s15.22,6.27,39,6.27,39.05-6.27,39.05-6.27l-1-3.41S61.7,34.33,39,34.33,1,29.77,1,29.77Z"/><path class="cls-1" d="M24.09,0a.77.77,0,0,1-.76.47H9v.59a.79.79,0,0,1,.54.8V21.71a.79.79,0,0,1-.54.8v.59h7.87v-.59a.79.79,0,0,1-.53-.8V16.07h3.76a.77.77,0,0,1,.76.48h.56V10.19h-.56a.77.77,0,0,1-.76.48H16.31V6.15h7a.77.77,0,0,1,.76.47h.56V0Z"/><path class="cls-1" d="M43.1,1.06V.47H35v.59a.79.79,0,0,1,.54.8V21.71a.79.79,0,0,1-.54.8v.59H43.1v-.59a.8.8,0,0,1-.53-.8V1.86A.8.8,0,0,1,43.1,1.06Z"/><path class="cls-1" d="M61.42.47v.59a.79.79,0,0,1,.54.8v9.3a8.06,8.06,0,0,1-.35,2.35,3.42,3.42,0,0,1-1.88,2.09,5.1,5.1,0,0,1-3.16.32,2.71,2.71,0,0,1-1.31-.59.76.76,0,0,1-.24-.46l-.57-.18-2,7.81.55.14a1.3,1.3,0,0,1,.8-.34,5.92,5.92,0,0,1,1.77.37,13.81,13.81,0,0,0,4.05.54,9.31,9.31,0,0,0,5.6-1.81,8.32,8.32,0,0,0,3.36-5.19A18.41,18.41,0,0,0,69,11.92V1.86a.8.8,0,0,1,.53-.8V.47Z"/><rect class="cls-3" y="0.47" width="200" height="38.98"/></g></g></svg>